<svg width="512" height="512" viewBox="0 0 512 512" fill="none" xmlns="http://www.w3.org/2000/svg">
  <rect width="512" height="512" fill="black"/>
  <g transform="translate(64,96) scale(0.75)">
    <g fill="#ffffff">
      <path d="M120 200h256c22 0 40 18 40 40v40H80v-40c0-22 18-40 40-40z"/>
      <rect x="128" y="160" width="192" height="56" rx="8"/>
      <circle cx="160" cy="312" r="44"/>
      <circle cx="336" cy="312" r="44"/>
      <rect x="208" y="120" width="128" height="40" rx="6"/>
      <rect x="112" y="224" width="24" height="32"/>
      <rect x="376" y="224" width="24" height="32"/>
      <path d="M64 368c64-24 320-24 384 0" stroke="#ffffff" stroke-width="12" fill="none"/>
      <path d="M144 312a16 16 0 1 0 32 0a16 16 0 1 0 -32 0z" fill="#000"/>
      <path d="M320 312a16 16 0 1 0 32 0a16 16 0 1 0 -32 0z" fill="#000"/>
    </g>
  </g>
  <g transform="translate(64,400)">
    <path d="M0 0c80-40 304-40 384 0" stroke="#ffffff" stroke-width="8" fill="none"/>
  </g>
  <g transform="translate(120,440)">
    <path d="M0 0h272" stroke="#ffffff" stroke-width="0"/>
    <text x="0" y="0" font-family="Inter, Arial, Helvetica, sans-serif" font-size="72" fill="#ffffff" dominant-baseline="hanging">B-Parking</text>
  </g>
</svg>

