<?xml version="1.0" encoding="UTF-8"?>
<svg id="Capa_1" data-name="Capa 1" xmlns="http://www.w3.org/2000/svg" width="1080" height="1080" viewBox="0 0 1080 1080">
  <defs>
    <style>
      .cls-1 {
        fill: #002a55;
      }
    </style>
  </defs>
  <path class="cls-1" d="M526.09,419.33c28.35,0,56.7-.1,85.05.03,33.64.16,67.27.51,100.9.79,24.68.21,49.36.45,74.05.68,4.36.04,4.64.4,2.77,4.36-3.14,6.67-3.86,13.5-1.41,20.5.84,2.42.29,3.11-2.28,2.85-41.47-4.29-75.88,12-107.05,37.18-11.91,9.62-21.19,21.67-29.08,34.77-8.35,13.88-17.74,26.93-30.19,37.52-16.25,13.81-34.81,20.02-56.27,18.54-31.63-2.18-63.33-3.35-95.02-4.46-4.66-.16-5.28-.75-5.08-6.05,1.35-34.75-10.66-64.23-35.29-88.55-18.36-18.13-40.9-28.06-66.12-32.2-34.29-5.64-66.23,1.36-96.19,18.43-1.02.58-1.97,1.81-3.25.91-1.04-.73-.42-2.01-.41-3.05.04-13.28,1.05-26.55.21-39.82-.24-3.89,1.11-5.23,5.09-5.19,49.51.46,99.01.77,148.52,1.16,28.61.23,57.23.55,85.84.79,8.41.07,16.82.01,25.22.01v.81"/>
  <path class="cls-1" d="M857.13,527.6c-6.39-6.77-12.45-13.65-19.88-19.18-17.41-12.97-36.82-20.24-58.56-21.81-15.48-1.12-30.7-.13-45.37,4.75-22.38,7.44-37.23,23.44-47.87,43.89-4.82,9.28-8.75,18.9-11.94,28.84-3.78,11.74-11.43,19.62-23.04,23.96-15.79,5.91-32.19,7.08-48.8,7.09-12.35,0-24.69-.05-37.04.01-41.38.2-82.76.4-124.14.75-3.6.03-4.61-.99-4.61-4.54-.01-9.61,1.18-19.18.05-28.83-4.16-35.56-23.89-58.4-56.75-71.11-39.6-15.32-86.59-2.88-112.33,30.02-7.66,9.79-10.84,21.4-13.61,33.16-2.36,10.03-4.06,20.19-4.23,30.53-.04,2.54-.83,3.64-3.56,3.56-7.59-.23-15.19-.22-22.79-.34-2.71-.04-4.73-.71-4.66-4.15.31-15.03-.48-30.07,1.74-45.06,2.89-19.45,8.05-37.91,21.25-53.16,10.07-11.63,23.23-19.01,36.84-25.51,45.56-21.76,90.31-19.72,132.7,7.5,32.87,21.1,47.98,53.01,49.3,91.68.12,3.5.41,7.04-.52,10.52-.93,3.45.71,4.54,4.03,4.67,20.86.81,41.71,1.71,62.56,2.66,12.73.58,25.48.91,38.16,2,21.6,1.86,39.89-5.51,56.24-18.92,12-9.84,21.12-21.99,29.1-35.23,25.4-42.13,62.47-67.25,111.27-74.12,26.07-3.67,50.36,2.03,70.98,18.95,17.89,14.68,25.44,34.47,25.45,57.43"/>
  <path class="cls-1" d="M445.03,414.75c-17.77,0-35.54.06-53.31-.01-33.91-.15-67.82-.36-101.74-.56-8.13-.05-16.27-.27-24.41-.2-3.96.03-5.61-1.51-5.53-5.54.57-28.99-.36-58.02,2.11-86.96.59-6.94,2.03-13.63,5.59-19.75,2.76-4.74,6.52-7.19,12.23-7.1,42.44.68,84.88,1.21,127.32,1.83,20.34.3,40.67.62,61,1.06,39.98.86,79.96,1.86,119.94,2.68,8.95.18,17.89.57,26.82,1.13,10.61.66,15.2,5.38,15.01,16.03-.55,31.7-1.25,63.41-1.8,95.11-.06,3.33-1.22,4.41-4.6,4.37-41.51-.42-83.01-.74-124.52-.99-18.03-.11-36.07-.02-54.1-.02,0-.35,0-.71,0-1.06M530.84,315.55s0-.04,0-.07c-23.17-.47-46.35-.9-69.52-1.45-3.18-.08-4.96.3-5.01,4.22-.31,26.69-.87,53.37-1.29,80.06-.1,6.08-.01,6.02,5.96,6.11,21.55.33,43.1.66,64.66,1.07,24.53.46,49.05.97,73.58,1.53,2.76.06,4.25-.48,4.3-3.71.45-27.36.99-54.72,1.63-82.08.08-3.36-.99-4.47-4.39-4.52-23.31-.29-46.62-.76-69.93-1.17ZM370.32,357.25h-1.63c0,13.68.06,27.36-.05,41.04-.02,2.86.73,4.19,3.82,4.24,22.63.37,45.27.82,67.9,1.32,2.94.07,4.11-1.08,4.23-4.02.59-14.97-.97-29.9,1.13-44.97,1.67-11.97.37-24.36.49-36.56.03-2.96-.77-4.46-4.11-4.52-22.5-.36-44.99-.84-67.48-1.36-3.07-.07-4.39.92-4.36,4.19.13,13.54.05,27.09.05,40.63Z"/>
  <path class="cls-1" d="M1027,784.85c-1.9.75-2.92.59-3.98.22-40.3-14.06-81.7-24.31-122.72-35.91-32.82-9.28-65.38-19.46-98.73-26.73-38.94-8.49-78.26-14.65-117.83-19.46-42.98-5.23-86.13-7.49-129.33-8.98-30.09-1.03-60.19-.23-90.28.93-43.53,1.67-86.79,6-129.91,11.96-50.25,6.95-99.65,17.9-148.67,30.82-22.9,6.04-46.42,9.46-69.47,15.05-20.01,4.85-39.82,10.39-59.63,15.92-1.06.3-2.07.62-3.44.3.97-2.5,3.34-2.96,5.24-3.87,28.11-13.45,57.06-24.86,86.58-34.82,49.49-16.71,100.16-28.69,151.58-37.71,25.64-4.5,51.41-8.15,77.26-10.92,34.77-3.74,69.66-6,104.64-7.14,31.2-1.01,62.4-1.02,93.57-.26,26.27.64,52.53,2.2,78.69,5.08,19.94,2.19,39.91,4.01,59.78,6.8,66.11,9.29,131.19,23.07,194.46,44.66,40.55,13.84,80.01,30.18,117.37,51.34,1.38.78,2.76,1.56,4.82,2.72"/>
  <path class="cls-1" d="M262.12,575.45c-.81-43.95,36.11-82.34,79.83-83,47.2-.72,84.66,34.64,85.69,80.4,1.1,48.77-36.48,83.89-81.08,85.71-47.8,1.95-86.75-40.62-84.44-83.1M402.26,581.99c.47-2.94-1.63-2.54-3.36-2.59-8.08-.21-16.16-.44-24.24-.61-1.97-.04-4.91-.91-5.53,1.23-1.13,3.88-3.51,7.18-4.44,11.06-.11.44.62,1.16,1.07,1.64,6.46,6.73,12.96,13.42,19.41,20.16,1.35,1.41,2.43,1.32,3.66-.15,7.44-8.96,11.87-19.22,13.42-30.73ZM296.02,577.23c-1.22,0-2.44,0-3.66,0-5.38,0-5.6.22-4.82,5.44,1.49,9.94,5.15,18.98,11.03,27.16,1.89,2.63,3.31,2.88,5.7.47,5.92-5.95,12.08-11.66,18.14-17.47,1.06-1.02,2.9-2.34,2.04-3.6-2.37-3.48-2.44-7.91-5.03-11.2-.23-.29-1.04-.18-1.57-.16-7.29.27-14.56-.16-21.83-.65ZM375.51,573.41c9.5,0,16.24-.16,22.98.07,3.4.11,4.21-1.14,3.83-4.29-1.33-10.86-5.35-20.56-11.89-29.31-1.7-2.28-2.85-1.57-4.46,0-5.5,5.4-10.93,10.9-16.72,15.97-3.49,3.06-3.9,5.31-2.24,10.07,2.2,6.33,5.05,8.55,8.5,7.48ZM342.9,529.08c0-2.71-.15-5.43.04-8.12.2-2.73-.79-3.58-3.49-3.23-10.95,1.44-20.91,5.21-29.8,11.84-2.38,1.77-1.93,2.9-.14,4.72,5.98,6.07,11.85,12.25,17.69,18.46,1.9,2.02,3.68,3.03,6.24,1.02,1.72-1.36,3.84-1.96,6.02-2.22,2.29-.28,3.43-1.58,3.15-3.85-.77-6.23.34-12.41.29-18.62ZM311.37,571.27c0,.1,0,.2,0,.3.68,0,1.36-.04,2.03,0,6.5.38,6.48.38,8.85-5.73.44-1.12.97-2.27,1.73-3.19,1.58-1.91,1.47-3.4-.32-5.2-6.21-6.26-12.35-12.58-18.36-19.02-1.94-2.08-3.07-2.27-4.96.11-6.81,8.59-11.05,18.23-12.77,29.04-.42,2.63.3,3.76,3.11,3.71,6.89-.11,13.79-.03,20.68-.03ZM348.55,542.23c0,2.7-.67,5.64.19,8.03.85,2.35,4.38,1.42,6.4,2.78.78.53,1.79.77,2.45,1.4,2.13,2.03,3.61,1.15,5.41-.63,6.16-6.09,12.39-12.11,18.76-17.98,2.2-2.03,2.08-3.26-.2-5.06-8.58-6.76-18.11-11.15-29.01-12.64-2.8-.38-3.78.35-3.67,3.05.3,7.03-.34,14.03-.33,21.05ZM346.83,623.93c0,1.63.16,3.27-.03,4.88-.42,3.57.97,4.34,4.44,3.9,10.61-1.35,20.07-5.26,28.67-11.53,2.21-1.61,2.38-2.7.38-4.69-5.74-5.75-11.39-11.61-16.85-17.63-2.48-2.74-4.57-4.28-8.08-1.51-1.38,1.09-3.5,1.35-5.34,1.73-1.75.37-2.62,1.17-2.52,3.01.4,7.3-.51,14.56-.68,21.85ZM340.7,608.42c.19,0,.38,0,.57,0,0-2.03.06-4.07-.02-6.1-.09-2.51-11.07-8.08-13.17-6.71-.34.22-.61.53-.9.82-6.45,6.2-12.85,12.44-19.36,18.57-1.76,1.65-2.08,2.87-.04,4.54,8.71,7.1,18.6,11.44,29.72,13.05,2.26.33,3.26-.26,3.23-2.7-.08-7.16-.03-14.31-.03-21.47Z"/>
  <path class="cls-1" d="M852.14,583.64c-.08,46.51-37.27,82.89-84.15,83.22-42.15.29-83.16-36.46-81.82-86.2,1.16-43.22,38.2-79.94,82.8-79.95,45.84-.01,83.24,37.28,83.17,82.92M765.83,616.91c0-1.22-.14-2.46.03-3.66.54-3.81-.63-6.12-4.82-6.67-1.65-.22-3.34-1.24-4.69-2.3-1.99-1.56-3.28-.93-4.85.6-6.39,6.25-12.82,12.46-19.36,18.55-1.88,1.75-1.83,2.9.11,4.48,8.84,7.17,18.85,11.54,30.13,13.08,2.2.3,3.11-.57,2.97-2.62-.49-7.17.32-14.32.47-21.47ZM721.34,585.44c-1.89,0-3.79.13-5.67-.03-2.93-.25-4.32.65-3.92,3.87,1.33,10.68,5.1,20.36,11.42,29.1,1.8,2.49,3.16,2.62,5.36.4,5.53-5.57,11.15-11.05,16.97-16.31,3-2.72,4.6-5.11,1.51-8.79-.87-1.04-1.04-2.74-1.32-4.19-.44-2.32-1.51-3.68-4.08-3.44-6.77.62-13.5-.45-20.26-.6ZM799.98,586.69c-3.39-.83-7.43.51-8.44,6.98-.2,1.25-1.14,2.44-1.93,3.53-.99,1.37-.76,2.4.36,3.56,6.59,6.8,13.16,13.63,19.7,20.48,1.1,1.15,1.95,1.65,3.24.14,7.66-9,12.34-19.28,13.67-31.06.21-1.86-.48-2.76-2.49-2.66-7.3.36-14.56-.36-24.11-.97ZM817.95,581.85c1.49,0,3-.15,4.46.03,3.57.45,4.73-.72,4.28-4.51-1.26-10.47-5.1-19.77-11.21-28.3-1.9-2.65-3.12-2.95-5.49-.51-5.28,5.43-10.7,10.75-16.35,15.78-3.33,2.96-5.12,5.58-1.91,9.71.92,1.18,1.06,3.02,1.4,4.6.36,1.69,1.11,2.6,3,2.54,7.29-.22,14.56.08,21.83.66ZM736.03,580.3c2.88-.34,5.77.71,8.2-.55,2.38-1.23,1.45-4.47,2.87-6.45.55-.76.81-1.75,1.42-2.44,1.56-1.79,1.32-3.16-.33-4.85-6.26-6.36-12.43-12.81-18.53-19.31-1.83-1.95-3.01-1.99-4.78.17-7.14,8.7-11.24,18.66-12.97,29.7-.38,2.41.69,3.3,2.9,3.1,7.17-.63,14.29.54,21.23.63ZM773.4,549.75c-1.75,6.62-.58,10.75,5.98,11.74,1.13.17,2.26.96,3.2,1.71,1.61,1.26,2.76.98,4.18-.41,6.59-6.43,13.21-12.83,19.94-19.11,1.83-1.71,1.44-2.74-.24-4.12-8.69-7.12-18.5-11.59-29.68-13.1-2.5-.34-3.48.18-3.43,2.82.11,7.15.04,14.31.04,20.47ZM771.09,632.11c0,1.76.14,3.54-.03,5.28-.33,3.43,1.18,4.13,4.34,3.73,10.43-1.33,19.8-5.1,28.38-11.16,2.96-2.09,2.79-3.4.35-5.8-5.78-5.7-11.37-11.6-16.85-17.59-2.24-2.45-4.15-3.45-7.08-1.07-1.55,1.26-3.66,1.69-5.69,1.97-1.87.25-2.89,1.14-2.76,3.21.46,7.16-.6,14.27-.67,21.42ZM766.89,542.81h.51c0-4.6-.04-9.19.02-13.79.03-2.2-.56-3.07-3.07-2.84-11.38,1.02-21.47,5.15-30.53,12.02-1.79,1.36-2.13,2.19-.36,3.97,6.11,6.14,12.02,12.48,18.03,18.72,1.2,1.25,2.71,3.32,4.36,2.18,3.39-2.33,7.79-2.15,10.86-4.88.43-.38.18-1.56.18-2.37.01-4.33,0-8.67,0-13Z"/>
  <path class="cls-1" d="M700.18,383.87c19.24.43,38.48,1.33,57.72,1.14,19.35-.18,32.16,9.31,41.4,25.19.89,1.54.7,2.78-.53,4-2.6,2.58-5.55,4.11-9.38,4.08-24.41-.15-48.89.86-73.23-.56-27.05-1.58-54.04-.26-81.05-.89-3.26-.07-4.24-1.06-4.14-4.24.3-8.67.35-17.34.42-26.01.02-2.85,1.09-4.12,4.14-4.05,21.55.52,43.1.91,64.65,1.34"/>
  <path class="cls-1" d="M228.24,499.51c-.4-19.29-.55-38.38.29-57.47.32-7.31.17-14.64.22-21.96.07-9.49,5.91-15.64,14.9-15.66,9.26-.03,15.31,6.13,15.21,15.75-.15,14.9-.44,29.8-.64,44.7-.02,1.69-.2,3.15-1.77,4.25-11.52,8.1-21.39,17.76-28.22,30.4"/>
  <path class="cls-1" d="M813.87,435.14c0,5.82-.09,11.64.04,17.45.06,2.54-.79,3.05-3.06,2.19-5.29-2.03-10.68-3.78-16.21-5.06-1.62-.37-2.47-1.37-3.17-2.79-6.93-14.07,3.19-31.84,18.81-33.16,2.94-.25,3.91.72,3.87,3.54-.1,5.95-.03,11.89-.03,17.84h-.24"/>
  <path class="cls-1" d="M825.52,436.74c0,6.76.05,13.52-.02,20.28-.05,4.19-1.15,4.74-4.87,2.67-2.58-1.43-4.01-3.5-3.94-6.55.29-12.16.5-24.31.85-36.47.15-4.95,4.04-2.59,6.44-3.01,2.95-.51,2.24,1.41,2.21,3.22-.13,6.62-.05,13.24-.05,19.86h-.62"/>

</svg>