<?xml version="1.0" encoding="UTF-8"?>
<svg id="Capa_1" data-name="Capa 1" xmlns="http://www.w3.org/2000/svg" width="1080" height="1080" viewBox="0 0 1080 1080">
  <defs>
    <style>
      .cls-1 {
        fill: #002a55;
      }
    </style>
  </defs>
  <path class="cls-1" d="M1012.18,539.14c-.44,264.6-212.03,471.58-478.7,473.45-239.78,1.67-473.1-207.43-465.48-490.36,6.62-245.87,217.3-454.75,471.04-454.83,260.8-.06,473.57,212.09,473.14,471.74M521.14,728.39c0-6.94-.81-14,.15-20.8,3.06-21.7-3.57-34.79-27.4-37.92-9.37-1.23-18.98-7.06-26.66-13.09-11.34-8.88-18.66-5.3-27.58,3.42-36.38,35.54-72.95,70.88-110.12,105.55-10.69,9.98-10.43,16.47.64,25.47,50.28,40.78,107.23,65.66,171.42,74.43,12.54,1.71,17.68-3.27,16.9-14.9-2.79-40.81,1.83-81.45,2.66-122.17ZM268.05,549.34c-10.76,0-21.59.77-32.26-.17-16.69-1.45-24.57,3.69-22.28,22,7.59,60.77,29.03,115.84,64.94,165.53,10.26,14.18,17.98,14.9,30.51,2.29,31.44-31.66,63.43-62.88,96.52-92.8,17.08-15.45,26.19-29.05,8.6-50.03-4.97-5.92-5.94-15.61-7.51-23.82-2.52-13.19-8.56-20.94-23.24-19.59-38.51,3.55-76.83-2.58-115.28-3.43ZM715.43,556.46c-19.31-4.71-42.29,2.9-48.01,39.74-1.11,7.11-6.49,13.89-10.96,20.07-5.64,7.81-4.34,13.67,2.05,20.24,37.5,38.69,74.85,77.55,112.1,116.51,6.23,6.52,11.08,9.38,18.41.78,43.6-51.19,70.22-109.71,77.77-176.68,1.19-10.58-2.73-15.72-14.19-15.14-41.5,2.07-82.85-2.05-137.16-5.51ZM817.67,528.94c8.48,0,17.06-.87,25.4.17,20.31,2.53,26.91-4.11,24.32-25.64-7.15-59.54-29.03-112.48-63.77-161.02-10.79-15.09-17.72-16.77-31.23-2.88-30.04,30.89-60.86,61.17-93.04,89.76-18.94,16.83-29.15,31.72-10.85,55.26,5.23,6.74,6.05,17.2,7.95,26.16,2.04,9.61,6.31,14.79,17.04,14.44,41.45-1.25,82.85.47,124.18,3.77ZM351.63,520.08c16.37-1.93,32.81,4.07,46.67-3.11,13.53-7,8.22-25.41,16.3-36.7,3.11-4.34,4.63-9.93,8.08-13.89,8.86-10.17,7.53-18-1.9-27.6-35.59-36.17-70.7-72.85-105.43-109.87-10.41-11.07-17.12-11.33-27.22.99-40.6,49.49-63.94,106.15-73.78,168.94-2.14,13.72,3.94,18.75,16.5,17.64,40.78-3.61,81.27,3.09,120.79,3.59ZM564.2,346.34c-9.93,37.68-3.29,61.15,34.04,66.78,6.44.98,12.84,5.49,18.21,9.71,9.16,7.2,15.72,5.58,23.8-2.32,37.47-36.6,75.17-72.98,113.46-108.73,10.39-9.72,8.19-15.6-1.35-23.43-49.41-40.49-105.24-65.92-168.83-74.53-14.2-1.93-19.77,1.04-19.54,16.04.6,40.7.21,81.42.21,116.48ZM551.06,814.84c0,10.02.8,20.11-.16,30.02-1.9,19.49,6.74,23.52,24.7,21.25,59.32-7.55,112.64-29.02,161.46-63.48,16.83-11.88,15.88-19.33,2.01-33-32.9-32.41-64.7-65.99-95.87-100.08-12.74-13.94-23.6-19.6-40.28-6.1-8.83,7.15-20.83,9.63-32.39,11.22-10.63,1.45-16.44,6.5-15.68,18.29,2.63,40.73-3.41,81.21-3.79,121.87ZM527.18,306.84l2.92.02c0-26.17-.25-52.33.12-78.48.17-12.5-3.17-17.47-17.44-16.18-64.76,5.82-122.12,29.29-173.7,68.36-10.21,7.73-12.1,12.43-2.06,22.56,34.76,34.94,68.36,71.01,102.56,106.51,6.83,7.08,15.39,18.86,24.78,12.41,19.28-13.26,44.32-12.24,61.76-27.77,2.42-2.18,1.01-8.87,1.03-13.46.08-24.65.03-49.31.03-73.96Z"/>
</svg>