<?xml version="1.0" encoding="UTF-8"?>
<svg id="Capa_1" data-name="Capa 1" xmlns="http://www.w3.org/2000/svg" width="500" height="500" viewBox="0 0 1080 1080">
  <defs>
    <style>
      .cls-1 {
        fill: #002a55;
      }
    </style>
  </defs>
  <path class="cls-1" d="M186.88,516.26c.18.16.34.39.56.48,19.14,8.09,24.62,22.5,22.26,44.1-2.29,21.01-16.36,34.34-38.42,38.65-7,1.37-14.06,1.9-21.14,1.94-21.3.11-42.6.04-63.9.03-5.15,0-5.33-.18-5.33-5.12,0-44.77-.01-89.54,0-134.32,0-11.62,6.55-18.52,18.06-18.58,21.29-.11,42.6-.37,63.88.43,10.77.4,20.93,3.29,29.44,10.24,10.91,8.9,13.07,21.14,12.13,34.25-.83,11.54-6.01,20.63-16.16,26.62-.43.25-.81.61-1.2.94-.09.07-.12.22-.18.34M112.97,521.75c0,15.48-.01,30.96.01,46.44,0,1.84-.51,4.25,2.55,4.18,14.95-.35,29.94.99,44.85-.83,5.03-.61,9.4-2.88,12.3-7.23,8.76-13.14,1.08-30.19-14.46-32.17-2.04-.26-4.11-.36-6.17-.37-10.07-.04-20.13-.11-30.2.04-3.42.05-4.9-.9-4.72-4.61.28-5.79.08-11.6.07-17.4,0-5.25.15-5.42,5.42-5.44,10.83-.04,21.7.49,32.48-.26,14.88-1.04,19.13-11.92,15.54-22.89-2.63-8.03-9.84-9.33-16.95-9.55-12.12-.38-24.25-.15-36.38-.38-3.39-.07-4.46,1.01-4.42,4.42.16,15.35.07,30.7.07,46.05Z"/>
  <path class="cls-1" d="M967.92,578.63c-6.25,8.41-13.7,13.66-23.11,15.75-11.11,2.46-22.03,1.76-32.62-2.58-13.03-5.34-20.15-15.78-23.77-28.72-5.28-18.85-5.83-37.94-.65-56.91,5.5-20.16,20.88-32.83,41.87-35.21,12.02-1.36,23.93-1.41,35.66,2.1,19.3,5.77,30.66,19.46,33.07,39.46,1.12,9.27.59,18.55.66,27.82.15,19.22-.05,38.45-.06,57.67-.02,23.28-11.55,38.11-34.37,43.43-15.35,3.58-30.83,4.86-46.19-.28-16.12-5.4-24.9-17.51-30.07-32.91-.68-2.02-.36-3.05,2.16-3.02,9.68.11,19.36.05,29.05.04,1.32,0,2.51,0,3.03,1.68,2.19,6.97,7.67,9.54,14.3,10.65,4.38.74,8.7.82,13.07,0,9.82-1.84,15.39-7.95,17.17-17.51,1.25-6.7,1.76-13.52.8-21.47M968.2,531.33c.35-6.95-1.1-13.74-3.38-20.37-1.97-5.72-5.56-10.13-11.24-12.62-14.97-6.55-30.43.26-34.76,15.93-3.53,12.8-3.38,25.8,1.08,38.46,3.48,9.88,11.65,15.68,21.63,15.77,10.17.1,19.13-5.97,22.8-15.53,2.66-6.93,4.19-14.07,3.88-21.66Z"/>
  <path class="cls-1" d="M275.29,520.49c0-22.19,0-44.38,0-66.56,0-11.52,6.75-18.23,18.25-18.28,19.35-.08,38.7-.65,58.04.31,25.02,1.23,40.49,15.61,43.73,40.49,1.66,12.78.77,25.2-4.89,37.01-6.9,14.37-18.89,21.41-34.18,23.25-14.13,1.7-28.36.58-42.54.69-5.82.04-5.86-.13-5.87,5.58,0,15.36-.08,30.71.06,46.06.03,3.4-1.09,4.53-4.47,4.46-8-.19-16.01-.22-24.01.01-3.55.11-4.34-1.26-4.32-4.51.11-22.84.06-45.67.06-68.5h.13M308.25,486.03c0,6.45,0,12.91,0,19.36,0,1.73-.12,3.41,2.47,3.37,11.99-.18,24.02.74,35.97-.78,7.94-1.01,13.12-5.52,15.49-13.21,1.37-4.41,1.28-8.91.85-13.41-1.04-10.84-7.88-17.41-18.79-17.72-10.71-.3-21.43-.16-32.14-.38-3.17-.07-3.97,1.28-3.9,4.18.15,6.19.05,12.39.05,18.59Z"/>
  <path class="cls-1" d="M713.5,593.43c-12.21,0-23.69-.01-35.16.01-2.24,0-3.06-1.55-3.93-3.17-6.68-12.35-13.41-24.67-20.02-37.05-1.74-3.26-4.07-5.92-6.77-8.36-1.84-1.67-3.84-2.86-6.28-1.64-2.42,1.2-3.31,3.39-3.27,6.09.08,5.8.03,11.61.03,17.42,0,7.49-.16,14.98.07,22.45.11,3.49-1.15,4.42-4.48,4.32-7.48-.21-14.98-.21-22.46,0-3.37.1-4.48-.92-4.45-4.37.18-20.39.19-40.78.19-61.17,0-28.91-.08-57.82-.12-86.73q0-5.66,5.73-5.58c2.71.03,5.42,0,8.14,0,11.43,0,17.35,5.9,17.37,17.42.04,20.13.01,40.27.01,60.4v3.16c1.76.35,2.17-1.23,2.9-2.06,10.67-12.09,21.29-24.21,31.85-36.4,1.82-2.09,3.79-3.29,6.63-3.27,10.07.07,20.14.01,30.22.05.82,0,1.96-.52,2.41.56.44,1.04-.64,1.56-1.23,2.18-11.03,11.76-22.23,23.37-33.07,35.3-8.08,8.9-7.38,7.02-1.97,16.24,11.88,20.22,23.82,40.41,35.72,60.61.57.96,1.06,1.97,1.93,3.59"/>
  <path class="cls-1" d="M510.87,525.89c-.16,8.66.59,18.21-.64,27.74-2.28,17.8-11.26,30.58-28.29,36.8-15.95,5.83-32.36,7.61-48.98,2.87-22.59-6.44-27.5-26.78-25.5-41.45,2.46-18.04,12.94-28.12,32.75-32.06,7.96-1.58,16.02-2.63,24.04-3.9,4.25-.67,8.32-1.82,11.85-4.39,5.5-4,5.18-11.22-.98-14.13-9.21-4.36-18.75-4.06-28.19-.51-1.14.43-2.45,1.37-2.92,2.41-1.71,3.82-4.78,4.12-8.31,3.86-6.96-.51-13.92-.35-20.89-.01-2.98.15-4.19-.63-3.33-4.06,3.71-14.71,12.57-24.28,27.43-27.88,16.96-4.11,33.78-3.47,50.35,2.09,13.6,4.56,21.3,14.98,21.58,29.32.14,7.48.02,14.96.02,23.32M480.46,532.06c-9.64,3.95-19.32,6.06-28.91,8.48-3.3.83-6.28,2.33-8.82,4.61-7.8,7-5.84,21.05,3.7,23.98,12.46,3.82,29.93-.98,33.49-19.11,1.13-5.76.6-11.55.54-17.96Z"/>
  <path class="cls-1" d="M768.16,551.46c0-11.48-.14-22.97.03-34.45.23-15.17,4.35-28.78,16.87-38.59,8.7-6.81,19.13-8.65,29.73-9.62,8.81-.81,17.54.09,26.06,2.44,18.23,5.03,29,18.12,31.19,37.53.51,4.5.61,8.99.61,13.51.01,22.06,0,44.12.19,66.18.03,3.81-.98,5.39-5.01,5.04-5.37-.46-10.84.5-16.17-.94-6.33-1.7-9.3-5.1-10.06-11.64-.18-1.53-.24-3.08-.24-4.63-.02-19.22,0-38.45-.03-57.67,0-2.19-.1-4.39-.38-6.56-1.12-8.59-5.37-13.09-13.78-14.99-3.84-.87-7.7-.96-11.55-.52-10.14,1.16-15.44,6.98-15.8,17.15-.16,4.64-.26,9.28-.25,13.92.05,20.25.15,40.5.21,60.74.01,4.82-.27,5.05-5.02,5.06-7.49,0-14.97-.12-22.46.06-3.13.08-4.28-.76-4.23-4.1.18-12.64.07-25.29.07-37.93"/>
  <path class="cls-1" d="M525.18,552.08c.25-9.75-.59-22.58,1.08-35.25,3.15-23.92,17.95-39.42,41.61-44.25,6.98-1.42,14.06-1.74,21.15-2.09,3.02-.15,4.1,1.04,4.04,4.07-.15,8.13-.19,16.26.01,24.38.08,3.38-1.37,4.25-4.38,4.19-3.85-.06-7.73-.1-11.57.26-12.07,1.13-19.54,8.99-19.83,21.14-.3,12.76-.24,25.52-.29,38.29-.04,8.77-.1,17.53.04,26.3.05,3.38-1.2,4.44-4.58,4.34-7.74-.23-15.49-.15-23.23.02-2.96.06-4.14-.83-4.1-3.93.13-11.49.05-22.97.05-37.46"/>
  <path class="cls-1" d="M719.7,532.16c0-18.84,0-37.67,0-56.51,0-5.05.1-5.16,5.24-5.13,4.77.03,9.55-.22,14.31.37,6.83.84,10.72,4.63,11.49,11.42.16,1.41.23,2.83.24,4.24.05,33.8.1,67.61.13,101.41,0,5.41-.07,5.47-5.33,5.48-7.23,0-14.47-.16-21.68.07-3.46.11-4.46-1.16-4.44-4.45.1-18.97.05-37.93.05-56.9"/>
  <path class="cls-1" d="M239.25,536.11c-5.67,0-11.35-.09-17.01.05-2.2.06-2.88-.63-2.79-2.81.16-4.12.15-8.24,0-12.36-.07-2.08.4-2.9,2.7-2.87,11.47.12,22.94.1,34.41.01,2.01-.01,2.69.52,2.62,2.58-.15,4.25-.18,8.51,0,12.75.1,2.35-.89,2.73-2.93,2.69-5.67-.11-11.34-.04-17.01-.04"/>
</svg>